<svg width="18" height="18" viewBox="0 0 18 18" fill="none" xmlns="http://www.w3.org/2000/svg">
<path d="M2 18C1.45 18 0.979 17.8043 0.587 17.413C0.195667 17.021 0 16.55 0 16V2C0 1.45 0.195667 0.979 0.587 0.587C0.979 0.195667 1.45 0 2 0H16C16.55 0 17.021 0.195667 17.413 0.587C17.8043 0.979 18 1.45 18 2V16C18 16.55 17.8043 17.021 17.413 17.413C17.021 17.8043 16.55 18 16 18H2ZM2 16H16V2H2V16ZM5 14C5.28333 14 5.521 13.904 5.713 13.712C5.90433 13.5207 6 13.2833 6 13V10C6 9.71667 5.90433 9.479 5.713 9.287C5.521 9.09567 5.28333 9 5 9C4.71667 9 4.479 9.09567 4.287 9.287C4.09567 9.479 4 9.71667 4 10V13C4 13.2833 4.09567 13.5207 4.287 13.712C4.479 13.904 4.71667 14 5 14ZM13 14C13.2833 14 13.5207 13.904 13.712 13.712C13.904 13.5207 14 13.2833 14 13V5C14 4.71667 13.904 4.479 13.712 4.287C13.5207 4.09567 13.2833 4 13 4C12.7167 4 12.4793 4.09567 12.288 4.287C12.096 4.479 12 4.71667 12 5V13C12 13.2833 12.096 13.5207 12.288 13.712C12.4793 13.904 12.7167 14 13 14ZM9 14C9.28333 14 9.521 13.904 9.713 13.712C9.90433 13.5207 10 13.2833 10 13V12C10 11.7167 9.90433 11.479 9.713 11.287C9.521 11.0957 9.28333 11 9 11C8.71667 11 8.47933 11.0957 8.288 11.287C8.096 11.479 8 11.7167 8 12V13C8 13.2833 8.096 13.5207 8.288 13.712C8.47933 13.904 8.71667 14 9 14ZM9 9C9.28333 9 9.521 8.904 9.713 8.712C9.90433 8.52067 10 8.28333 10 8C10 7.71667 9.90433 7.479 9.713 7.287C9.521 7.09567 9.28333 7 9 7C8.71667 7 8.47933 7.09567 8.288 7.287C8.096 7.479 8 7.71667 8 8C8 8.28333 8.096 8.52067 8.288 8.712C8.47933 8.904 8.71667 9 9 9ZM2 16V2V16Z" fill="black"/>
</svg>
