<svg width="24" height="24" viewBox="0 0 24 24" fill="none" xmlns="http://www.w3.org/2000/svg">
<path d="M3.5 9V8.5H3H2.5V3.5H21.5V8.5H21H20.5V9V20C20.5 20.3978 20.342 20.7794 20.0607 21.0607C19.7794 21.342 19.3978 21.5 19 21.5H5C4.60218 21.5 4.22064 21.342 3.93934 21.0607C3.65804 20.7794 3.5 20.3978 3.5 20V9Z" stroke="black"/>
<path d="M4.5 5.5H19.5V6.5H4.5V5.5ZM18.5 19.5H5.5V9.5H18.5V19.5Z" stroke="black"/>
<path d="M14.4142 11.5C14.3403 11.709 14.2204 11.901 14.0607 12.0607C13.7794 12.342 13.3978 12.5 13 12.5H11C10.6022 12.5 10.2206 12.342 9.93934 12.0607C9.77964 11.901 9.65967 11.709 9.58579 11.5H14.4142Z" stroke="black"/>
</svg>
