<svg width="46" height="39" viewBox="0 0 46 39" fill="none" xmlns="http://www.w3.org/2000/svg">
<path d="M0.166504 13.719V6.11803C0.166524 5.60705 0.334794 5.10619 0.65244 4.67161C0.970086 4.23703 1.42454 3.88593 1.96484 3.6577L9.54817 0.449364C9.99899 0.258925 10.496 0.15979 10.9998 0.15979C11.5037 0.15979 12.0007 0.258925 12.4515 0.449364L20.0348 3.6577C20.5751 3.88593 21.0296 4.23703 21.3472 4.67161C21.6649 5.10619 21.8332 5.60705 21.8332 6.11803V13.719C21.8327 14.2297 21.6643 14.7302 21.3467 15.1644C21.029 15.5986 20.5748 15.9494 20.0348 16.1775L12.4515 19.3859C12.0007 19.5763 11.5037 19.6754 10.9998 19.6754C10.496 19.6754 9.99899 19.5763 9.54817 19.3859L1.96484 16.1775C1.42487 15.9494 0.970633 15.5986 0.65301 15.1644C0.335386 14.7302 0.166927 14.2297 0.166504 13.719V13.719ZM3.53134 6.29953C3.40331 6.51669 3.38228 6.76794 3.47285 6.99821C3.56343 7.22847 3.75821 7.41894 4.0145 7.52786L9.9165 10.0267V15.4167C9.9165 15.6598 10.0306 15.893 10.2338 16.0649C10.437 16.2368 10.7125 16.3334 10.9998 16.3334C11.2872 16.3334 11.5627 16.2368 11.7659 16.0649C11.969 15.893 12.0832 15.6598 12.0832 15.4167V10.0267L17.9852 7.5297C18.1125 7.47577 18.226 7.40115 18.3193 7.31009C18.4125 7.21904 18.4837 7.11333 18.5286 6.99902C18.5736 6.8847 18.5915 6.76401 18.5813 6.64383C18.5712 6.52366 18.5332 6.40635 18.4694 6.29861C18.4057 6.19088 18.3175 6.09481 18.2099 6.01591C18.1023 5.93701 17.9774 5.87682 17.8423 5.83877C17.7072 5.80072 17.5645 5.78556 17.4225 5.79416C17.2805 5.80275 17.1418 5.83493 17.0145 5.88886L10.9998 8.43536L4.98517 5.88886C4.85785 5.835 4.71924 5.8029 4.57726 5.79439C4.43527 5.78588 4.2927 5.80113 4.15768 5.83927C4.02266 5.87741 3.89785 5.93769 3.79038 6.01666C3.68291 6.09564 3.59488 6.19176 3.53134 6.29953ZM5.58317 19.758V29.625C5.5826 29.9653 5.73114 30.2936 6.00008 30.5466C6.26901 30.7995 6.63924 30.9591 7.03917 30.9945C7.48838 29.9225 8.3192 28.9947 9.41729 28.3386C10.5154 27.6826 11.8268 27.3307 13.171 27.3313C14.5152 27.3319 15.8261 27.685 16.9234 28.342C18.0207 28.999 18.8503 29.9276 19.2982 31H24.3725C24.8208 29.928 25.6506 28.9998 26.7479 28.3432C27.8452 27.6866 29.1559 27.3338 30.4998 27.3334V7.62503C30.4998 7.26036 30.3286 6.91062 30.0239 6.65276C29.7191 6.3949 29.3058 6.25003 28.8748 6.25003H23.9998V6.11803C23.9998 5.1647 23.651 4.25536 23.0313 3.50003H28.8748C30.1678 3.50003 31.4077 3.93463 32.322 4.70821C33.2362 5.4818 33.7498 6.53101 33.7498 7.62503V9.00003H37.1082C38.9932 9.00003 40.7092 9.91853 41.5152 11.3595L45.1985 17.9375C45.5062 18.4875 45.6665 19.0925 45.6665 19.703V29.625C45.6665 30.719 45.1529 31.7683 44.2387 32.5418C43.3244 33.3154 42.0844 33.75 40.7915 33.75H36.911C36.6576 35.0338 35.8743 36.2 34.7004 37.0411C33.5265 37.8822 32.0381 38.3438 30.4998 38.3438C28.9616 38.3438 27.4732 37.8822 26.2993 37.0411C25.1254 36.2 24.3421 35.0338 24.0887 33.75H19.5798C19.3266 35.0358 18.5418 36.2037 17.3655 37.0454C16.1892 37.8871 14.6978 38.348 13.1573 38.3458C11.6168 38.3436 10.1273 37.8784 8.95433 37.0334C7.7814 36.1883 7.00132 35.0182 6.75317 33.7317C5.54438 33.6358 4.42136 33.1617 3.60388 32.4022C2.78639 31.6427 2.33327 30.6523 2.33317 29.625V18.383L5.58317 19.758ZM33.7498 28.0704C35.0911 28.7263 36.1127 29.7649 36.6315 31H40.7915C41.2225 31 41.6358 30.8552 41.9406 30.5973C42.2453 30.3394 42.4165 29.9897 42.4165 29.625V29.1667H39.7082C39.2772 29.1667 38.8639 29.0218 38.5591 28.764C38.2544 28.5061 38.0832 28.1564 38.0832 27.7917C38.0832 27.427 38.2544 27.0773 38.5591 26.8194C38.8639 26.5616 39.2772 26.4167 39.7082 26.4167H42.4165V20.9167H33.7498V28.0704ZM37.1082 11.75H33.7498V18.1667H41.7297L38.5815 12.5384C38.4501 12.3027 38.2422 12.1034 37.9822 11.9639C37.7221 11.8243 37.4205 11.7501 37.1125 11.75H37.1082ZM9.9165 32.8334C9.9165 33.1945 10.0006 33.5521 10.1639 33.8857C10.3272 34.2194 10.5666 34.5225 10.8684 34.7779C11.1702 35.0333 11.5285 35.2358 11.9228 35.374C12.3171 35.5122 12.7397 35.5834 13.1665 35.5834C13.5933 35.5834 14.0159 35.5122 14.4102 35.374C14.8045 35.2358 15.1628 35.0333 15.4646 34.7779C15.7664 34.5225 16.0058 34.2194 16.1691 33.8857C16.3324 33.5521 16.4165 33.1945 16.4165 32.8334C16.4165 32.104 16.0741 31.4045 15.4646 30.8888C14.8551 30.3731 14.0285 30.0834 13.1665 30.0834C12.3046 30.0834 11.4779 30.3731 10.8684 30.8888C10.2589 31.4045 9.9165 32.104 9.9165 32.8334V32.8334ZM30.4998 35.5834C31.3618 35.5834 32.1884 35.2936 32.7979 34.7779C33.4074 34.2622 33.7498 33.5627 33.7498 32.8334C33.7498 32.104 33.4074 31.4045 32.7979 30.8888C32.1884 30.3731 31.3618 30.0834 30.4998 30.0834C29.6379 30.0834 28.8112 30.3731 28.2017 30.8888C27.5922 31.4045 27.2498 32.104 27.2498 32.8334C27.2498 33.5627 27.5922 34.2622 28.2017 34.7779C28.8112 35.2936 29.6379 35.5834 30.4998 35.5834Z" fill="#FF2E65"/>
</svg>
