<svg width="30" height="30" viewBox="0 0 30 30" fill="none" xmlns="http://www.w3.org/2000/svg">
<path d="M28.9382 17.5042C28.9287 17.5571 28.922 17.6105 28.912 17.6634L28.8607 17.3604C28.8888 17.4077 28.912 17.4568 28.9382 17.5043C29.0944 16.6552 29.1734 15.7937 29.1743 14.9302C29.1743 13.0133 28.7999 11.1536 28.0602 9.4029C27.3465 7.7118 26.3256 6.19303 25.0239 4.88911C23.724 3.58519 22.2079 2.56167 20.5218 1.8464C18.7758 1.10586 16.9206 0.730547 15.0083 0.730547C14.1071 0.730547 13.2043 0.81536 12.3259 0.9844C12.324 0.98487 12.3217 0.98487 12.3192 0.98534C12.3687 1.01154 12.4186 1.03491 12.467 1.06205L12.1691 1.01529C12.219 1.0059 12.2694 0.995325 12.3192 0.98534C11.1141 0.343013 9.75844 0 8.38641 0C6.14648 0 4.04027 0.87433 2.45625 2.46264C0.872695 4.05049 0 6.16166 0 8.4071C0.00076041 9.83346 0.363891 11.2361 1.05516 12.4828C1.06418 12.4314 1.07039 12.3795 1.08035 12.328L1.13168 12.6257C1.10508 12.5791 1.08176 12.5304 1.05516 12.4828C0.914165 13.291 0.842808 14.1098 0.841875 14.9302C0.841875 16.8476 1.21629 18.7069 1.95598 20.458C2.66859 22.1496 3.69012 23.6673 4.99043 24.9712C6.29215 26.2753 7.80633 27.3002 9.4943 28.0136C11.2404 28.7555 13.0961 29.1313 15.0083 29.1313C15.8407 29.1313 16.675 29.0551 17.4892 28.9103C17.4417 28.8837 17.3933 28.8594 17.3448 28.8313L17.6475 28.8846C17.5952 28.8946 17.5425 28.9008 17.4893 28.9103C18.7477 29.6243 20.169 29.9997 21.615 30C23.8546 30 25.9597 29.127 27.5437 27.5383C29.1281 25.9514 30 23.8397 30 21.5943C29.9992 20.1626 29.6337 18.7548 28.9382 17.5043V17.5042ZM15.0648 23.6269C10.0322 23.6269 7.78066 21.1466 7.78066 19.2879C7.78066 18.3344 8.48285 17.6662 9.45059 17.6662C11.6043 17.6662 11.0464 20.7661 15.0648 20.7661C17.122 20.7661 18.2579 19.6464 18.2579 18.5006C18.2579 17.8115 17.9188 17.0475 16.5642 16.7127L12.0879 15.5926C8.48285 14.6864 7.82859 12.7328 7.82859 10.8964C7.82859 7.08369 11.4098 5.65208 14.7731 5.65208C17.8712 5.65208 21.5234 7.36843 21.5234 9.65581C21.5234 10.636 20.6767 11.2059 19.7093 11.2059C17.8712 11.2059 18.2095 8.65567 14.5071 8.65567C12.6698 8.65567 11.6522 9.48971 11.6522 10.6831C11.6522 11.8742 13.1032 12.2547 14.3631 12.5423L17.6764 13.2795C21.3057 14.0901 22.226 16.2142 22.226 18.2148C22.226 21.3133 19.8533 23.6269 15.0648 23.6269ZM17.3448 28.8313C17.3933 28.8595 17.4417 28.8837 17.4893 28.9103C17.5425 28.9008 17.5952 28.8946 17.6475 28.8845L17.3448 28.8313ZM28.912 17.6634C28.922 17.6105 28.9287 17.5572 28.9382 17.5043C28.912 17.4567 28.8887 17.4077 28.8608 17.3604L28.912 17.6634V17.6634ZM1.08035 12.328C1.07039 12.3795 1.06418 12.4314 1.05516 12.4828C1.08176 12.5304 1.10508 12.5791 1.13168 12.6257L1.08035 12.328V12.328ZM12.467 1.06205C12.4186 1.03491 12.3687 1.01154 12.3193 0.98534C12.2694 0.995325 12.219 1.00578 12.1691 1.01529L12.467 1.06205Z" fill="#00AFF0"/>
</svg>
