<svg width="31" height="30" viewBox="0 0 31 30" fill="none" xmlns="http://www.w3.org/2000/svg">
<path d="M15.0221 0.00461002C12.4855 0.0336761 7.03202 0.42935 3.98176 3.08561C1.71284 5.21963 0.920649 8.37471 0.827798 12.2761C0.750751 16.1635 0.6579 23.4638 8.07116 25.4515V28.4791C8.07116 28.4791 8.02473 29.6905 8.86829 29.9389C9.90743 30.2512 10.4991 29.3192 11.4869 28.3178L13.3291 26.3404C18.4013 26.7407 22.2862 25.8181 22.7337 25.6812C23.763 25.369 29.5602 24.6658 30.5075 17.3646C31.4795 9.82426 30.0343 5.07336 27.4256 2.92435H27.4098C26.6226 2.23614 23.4587 0.0477403 16.3902 0.0233623C16.3902 0.0233623 15.8657 -0.0103918 15.0221 0.0036724V0.00461002ZM15.1091 2.12456C15.8291 2.11987 16.2667 2.14894 16.2667 2.14894C22.2497 2.16394 25.1053 3.87321 25.779 4.44891C27.9758 6.236 29.1078 10.519 28.2791 16.8142C27.4918 22.9181 22.79 23.3044 21.9198 23.5678C21.5494 23.6803 18.1277 24.4811 13.817 24.2176C13.817 24.2176 10.6068 27.8949 9.60319 28.8419C9.44416 29.0079 9.25846 29.0566 9.13993 29.0323C8.97003 28.9929 8.91867 28.7932 8.92854 28.5194L8.95917 23.4947C2.67198 21.8445 3.04239 15.6178 3.10956 12.3652C3.18661 9.11261 3.82965 6.45166 5.74396 4.64956C8.32106 2.43772 12.9518 2.13956 15.1071 2.12456H15.1091ZM15.5832 5.37621C15.5314 5.37571 15.4801 5.38495 15.4321 5.40337C15.3842 5.4218 15.3405 5.44905 15.3037 5.48357C15.2669 5.51808 15.2376 5.55918 15.2176 5.60447C15.1976 5.64977 15.1872 5.69839 15.1871 5.74751C15.1871 5.95753 15.3669 6.12349 15.5832 6.12349C16.5626 6.10581 17.536 6.27235 18.4472 6.61351C19.3584 6.95467 20.1895 7.4637 20.8925 8.11124C22.3277 9.43421 23.0271 11.2119 23.0537 13.5363C23.0537 13.7416 23.2286 13.9123 23.4498 13.9123V13.8973C23.5541 13.8975 23.6543 13.8586 23.7285 13.7891C23.8027 13.7195 23.8449 13.6249 23.8459 13.526C23.8939 12.4319 23.707 11.34 23.2966 10.3167C22.8861 9.2933 22.2608 8.35985 21.4585 7.57304C19.8948 6.12255 17.9133 5.37527 15.5832 5.37527V5.37621ZM10.3766 6.236C10.097 6.19723 9.81188 6.2505 9.56862 6.38696H9.54788C8.98313 6.70119 8.47438 7.09835 8.04053 7.56367C7.68 7.95934 7.48442 8.3597 7.43305 8.74506C7.40243 8.97478 7.42317 9.20449 7.49528 9.4239L7.52096 9.4389C7.92694 10.5715 8.45738 11.661 9.10536 12.6868C9.94005 14.1279 10.9673 15.4606 12.1615 16.652L12.1971 16.7007L12.2534 16.7401L12.289 16.7795L12.3304 16.8132C13.5901 17.9502 14.9975 18.9298 16.5186 19.7283C18.2571 20.6265 19.312 21.0513 19.9452 21.2275V21.2369C20.1309 21.2904 20.2998 21.3147 20.4697 21.3147C21.0093 21.2772 21.5202 21.0693 21.9208 20.724C22.4087 20.3121 22.8225 19.8272 23.1456 19.2886V19.2792C23.4488 18.7372 23.3461 18.2244 22.9085 17.8774C22.0322 17.1503 21.0845 16.5045 20.0786 15.9488C19.4049 15.6018 18.7204 15.8119 18.4428 16.1635L17.8511 16.8714C17.5479 17.223 16.9967 17.1742 16.9967 17.1742L16.9809 17.1836C12.8708 16.1869 11.7743 12.2367 11.7743 12.2367C11.7743 12.2367 11.723 11.6995 12.1033 11.4257L12.8441 10.8594C13.1987 10.5856 13.4456 9.93677 13.0653 9.29638C12.4839 8.34016 11.805 7.44042 11.0384 6.61011C10.8708 6.41437 10.6357 6.28119 10.3746 6.23413L10.3766 6.236ZM16.2667 7.34989C15.7422 7.34989 15.7422 8.10186 16.2717 8.10186C16.9239 8.1119 17.5676 8.24385 18.1661 8.49016C18.7645 8.73647 19.306 9.09231 19.7595 9.53735C20.1732 9.97054 20.4911 10.4781 20.6944 11.0301C20.8976 11.582 20.9821 12.1671 20.9429 12.7506C20.9447 12.8493 20.9871 12.9435 21.0612 13.0129C21.1352 13.0823 21.2349 13.1214 21.339 13.1219L21.3548 13.1415C21.4596 13.1408 21.5599 13.101 21.634 13.0306C21.7081 12.9603 21.7501 12.865 21.7509 12.7656C21.7864 11.2757 21.2985 10.0258 20.3413 9.02447C19.3792 8.0231 18.0368 7.46147 16.323 7.34989H16.2667V7.34989ZM16.9157 9.37139C16.3754 9.35639 16.3546 10.1234 16.89 10.1384C18.1919 10.2021 18.8241 10.8266 18.9071 12.1111C18.9089 12.2086 18.9508 12.3016 19.0239 12.3701C19.097 12.4386 19.1955 12.4772 19.2982 12.4777H19.314C19.3668 12.4756 19.4187 12.4634 19.4665 12.4421C19.5143 12.4207 19.5572 12.3905 19.5926 12.3532C19.628 12.316 19.6552 12.2724 19.6727 12.225C19.6902 12.1776 19.6975 12.1274 19.6943 12.0773C19.6015 10.4028 18.6394 9.45953 16.9315 9.37233H16.9157V9.37139Z" fill="#7E57C2"/>
</svg>
